<?xml version="1.0" standalone="no"?>
<!DOCTYPE svg PUBLIC "-//W3C//DTD SVG 20010904//EN"
 "http://www.w3.org/TR/2001/REC-SVG-20010904/DTD/svg10.dtd">
<svg version="1.0" xmlns="http://www.w3.org/2000/svg"
 width="1280.000000pt" height="1270.000000pt" viewBox="0 0 1280.000000 1270.000000"
 preserveAspectRatio="xMidYMid meet">
<g transform="translate(0.000000,1270.000000) scale(0.100000,-0.100000)"
fill="#000000" stroke="none">
<path d="M7786 12674 c-261 -71 -462 -268 -525 -516 -54 -211 -25 -421 81
-603 57 -97 183 -220 275 -268 275 -144 598 -81 823 160 148 158 218 348 207
558 -10 190 -76 336 -216 476 -103 103 -196 153 -362 193 -128 31 -166 31
-283 0z"/>
<path d="M4670 12650 c-210 -45 -359 -136 -465 -285 -99 -140 -139 -263 -138
-430 2 -299 165 -554 438 -686 202 -98 433 -89 623 23 74 44 188 158 236 235
157 260 155 584 -5 830 -90 137 -256 258 -408 298 -79 20 -220 28 -281 15z"/>
<path d="M5370 11150 c-185 -38 -601 -164 -680 -205 -56 -30 -77 -67 -135
-240 -103 -311 -167 -569 -209 -843 -13 -84 -26 -155 -29 -158 -3 -3 -54 10
-114 29 -301 97 -653 170 -1019 210 -27 3 -55 -1 -80 -13 -84 -38 -514 -514
-579 -640 -16 -31 -17 -42 -6 -109 41 -243 186 -731 290 -980 29 -68 50 -129
48 -135 -3 -6 -47 -22 -98 -35 -255 -64 -494 -149 -784 -277 -242 -108 -258
-118 -284 -188 -50 -134 -141 -637 -141 -779 l0 -77 68 -77 c169 -192 504
-493 727 -655 61 -44 111 -83 113 -88 2 -5 -55 -74 -127 -155 -219 -245 -377
-451 -537 -702 -63 -99 -74 -122 -74 -160 0 -53 68 -267 155 -488 132 -334
145 -352 264 -384 332 -90 821 -171 1027 -171 49 0 66 -4 70 -15 4 -9 -8 -88
-25 -178 -17 -89 -35 -191 -41 -227 -34 -227 -65 -632 -58 -763 4 -90 15 -105
173 -239 221 -187 483 -373 541 -384 76 -14 540 158 889 330 243 120 271 142
268 214 -2 66 -33 143 -64 161 -25 14 -34 11 -195 -67 -173 -83 -394 -174
-451 -187 -28 -6 -33 -4 -33 12 0 17 286 521 926 1628 175 304 201 355 210
410 13 88 -43 126 -120 81 -48 -28 -66 -49 -183 -211 -293 -408 -494 -684
-507 -694 -12 -10 -20 -9 -40 4 -47 31 -70 -5 284 459 308 404 335 443 355
509 13 43 13 53 0 77 -29 57 -100 43 -186 -38 -32 -29 -147 -148 -257 -265
-109 -117 -342 -365 -517 -552 -649 -692 -758 -806 -769 -802 -22 8 7 328 53
595 28 161 22 172 -100 172 -83 0 -87 6 -65 84 36 122 26 134 -135 152 -231
27 -540 81 -571 100 -23 14 -22 15 457 274 856 462 1030 556 1215 655 239 127
295 161 335 202 86 88 38 163 -91 143 -27 -5 -110 -34 -184 -65 -74 -31 -162
-67 -196 -80 -33 -12 -116 -46 -184 -75 -68 -28 -169 -70 -225 -92 -55 -22
-126 -51 -159 -66 l-59 -26 -23 28 c-32 36 -20 59 43 82 27 9 140 52 253 95
748 286 737 281 768 346 19 41 5 78 -35 94 -39 15 -155 6 -238 -19 -38 -12
-173 -48 -300 -81 -359 -94 -731 -192 -1225 -323 -502 -134 -520 -138 -520
-115 0 28 199 291 366 483 34 39 65 81 69 94 8 27 -27 68 -92 106 -24 14 -43
30 -43 37 0 7 25 37 55 67 85 84 84 85 -97 232 -168 136 -378 333 -378 354 0
17 67 18 220 4 58 -5 182 -14 275 -20 389 -25 1351 -91 1591 -110 151 -12 223
-2 261 36 49 49 11 117 -85 148 -26 9 -265 54 -532 101 -267 47 -495 90 -507
95 -24 10 -27 20 -17 58 4 14 14 22 28 22 13 0 214 -38 447 -86 588 -118 566
-114 610 -114 127 0 166 89 70 158 -50 37 -73 45 -536 191 -405 128 -1392 442
-1538 489 -49 16 -93 34 -99 40 -19 19 157 95 420 182 129 43 238 84 243 92
16 24 9 62 -21 127 -32 68 -30 81 16 81 11 0 44 7 73 16 79 23 80 37 24 192
-87 241 -174 544 -160 558 14 15 51 -11 622 -431 94 -68 334 -245 535 -391
201 -147 428 -313 505 -371 203 -150 272 -178 320 -133 30 28 32 59 5 108 -29
55 -59 86 -240 249 -391 350 -580 527 -580 543 0 27 37 55 59 44 10 -5 184
-166 386 -359 424 -405 476 -443 538 -395 48 38 29 118 -49 212 -59 70 -231
272 -399 468 -318 373 -432 506 -489 574 -33 39 -148 175 -256 301 -328 386
-313 362 -222 351 89 -10 336 -63 477 -101 70 -19 140 -35 156 -35 40 0 56 30
66 120 5 41 13 74 18 72 6 -1 41 -13 78 -26 73 -25 102 -24 117 5 6 9 19 66
31 126 51 267 133 563 155 563 8 0 20 -12 28 -27 14 -28 414 -999 631 -1533
211 -519 233 -568 276 -604 37 -32 79 -33 105 -5 15 17 19 36 19 93 0 62 -18
133 -149 574 -81 276 -145 509 -142 517 8 21 55 30 70 14 14 -15 15 -19 161
-564 123 -458 132 -488 167 -536 29 -41 70 -59 97 -42 28 17 51 76 51 131 0
28 -20 177 -45 330 -25 152 -65 401 -90 552 -114 699 -206 1280 -212 1333 -5
47 -3 57 10 57 23 0 185 -149 357 -329 186 -194 186 -194 264 -91 27 36 52 66
57 68 4 2 19 -14 32 -35 37 -59 83 -103 107 -103 14 0 92 72 248 229 125 125
242 238 260 250 29 20 33 21 38 6 6 -16 -21 -207 -102 -710 -18 -115 -47 -298
-63 -405 -16 -107 -52 -341 -81 -520 -87 -551 -90 -573 -90 -628 0 -103 51
-164 108 -130 15 9 39 38 54 65 30 53 42 96 148 503 94 360 148 558 155 570 9
14 48 12 68 -2 15 -12 14 -21 -12 -113 -16 -55 -82 -282 -147 -505 -104 -358
-118 -414 -118 -483 -1 -71 1 -81 23 -98 36 -30 61 -23 112 30 38 40 56 72 97
177 28 71 100 251 160 399 60 149 202 500 315 780 314 777 323 800 338 800 24
0 110 -305 159 -565 18 -93 27 -119 47 -138 28 -25 45 -23 132 15 41 18 56 20
62 11 4 -7 6 -15 3 -20 -7 -12 16 -141 28 -156 17 -20 69 -12 243 35 252 69
485 109 485 84 0 -12 -76 -107 -245 -306 -134 -159 -408 -483 -690 -819 -93
-111 -246 -292 -338 -402 -173 -205 -200 -244 -212 -306 -6 -31 -3 -41 19 -62
56 -57 112 -23 371 225 492 472 553 529 567 529 24 0 51 -36 44 -58 -4 -11
-41 -51 -84 -89 -42 -37 -141 -128 -220 -200 -79 -73 -148 -133 -154 -133 -12
0 -223 -192 -297 -269 -99 -104 -100 -201 -2 -201 52 0 116 35 264 145 70 52
132 95 137 95 10 0 124 82 615 446 171 126 439 325 597 442 265 196 318 230
318 201 0 -41 -111 -418 -165 -560 -44 -114 -45 -153 -7 -173 15 -8 54 -19 86
-25 33 -6 61 -13 64 -16 3 -3 -9 -36 -26 -73 -37 -79 -39 -106 -13 -128 10 -9
88 -38 172 -64 224 -68 489 -172 489 -190 0 -17 -36 -31 -265 -104 -132 -43
-341 -110 -465 -151 -124 -41 -479 -156 -790 -256 -311 -100 -584 -190 -607
-201 -46 -22 -103 -79 -103 -104 0 -47 57 -84 127 -84 21 0 121 18 223 39 672
139 843 172 850 165 5 -5 12 -21 15 -36 5 -21 2 -29 -14 -37 -11 -7 -240 -52
-508 -101 -269 -49 -503 -94 -522 -100 -112 -32 -155 -114 -88 -164 54 -40 42
-41 1965 104 299 23 372 25 372 9 0 -26 -222 -233 -422 -393 -133 -106 -135
-114 -47 -202 l61 -62 -27 -18 c-101 -71 -110 -80 -113 -111 -3 -27 8 -44 71
-115 165 -185 357 -440 357 -473 0 -21 31 -28 -490 107 -881 227 -1389 358
-1520 393 -176 45 -272 46 -302 1 -19 -27 -8 -72 25 -103 47 -46 71 -55 572
-243 253 -95 467 -178 474 -186 19 -17 4 -67 -21 -72 -10 -2 -192 67 -405 153
-565 228 -588 237 -650 237 -66 1 -93 -19 -93 -70 0 -29 8 -44 48 -81 45 -44
82 -64 541 -307 64 -34 215 -114 336 -179 121 -65 285 -153 365 -195 613 -324
770 -411 770 -425 0 -7 -10 -15 -22 -18 -96 -23 -363 -69 -503 -87 -177 -22
-205 -33 -205 -74 0 -18 17 -84 37 -148 5 -16 -3 -18 -74 -18 -136 0 -139 -8
-98 -244 25 -147 55 -405 55 -475 0 -22 -5 -43 -11 -47 -7 -4 -43 26 -87 72
-114 119 -935 984 -1129 1189 -330 349 -375 392 -420 405 -89 27 -128 -18 -98
-111 18 -54 21 -58 405 -559 297 -387 276 -357 255 -381 -10 -10 -28 -19 -40
-19 -22 0 -53 40 -453 590 -214 294 -249 330 -321 330 -67 0 -78 -86 -25 -192
15 -29 74 -134 132 -233 58 -99 155 -265 215 -370 60 -104 137 -237 172 -295
34 -58 129 -220 210 -360 81 -140 204 -351 271 -468 68 -117 124 -217 124
-222 0 -18 -36 -10 -141 29 -143 54 -221 87 -387 166 -135 63 -144 66 -166 52
-12 -9 -29 -30 -35 -49 -31 -81 -31 -81 -46 -68 -8 7 -15 18 -15 25 0 30 -147
133 -202 141 -43 7 -71 -14 -147 -114 -144 -189 -401 -467 -424 -459 -8 2 -16
51 -24 133 -37 384 -65 655 -73 704 -5 30 -21 147 -36 260 -14 113 -40 286
-56 385 -16 99 -34 208 -38 241 -9 59 -32 188 -86 468 -35 182 -79 268 -139
268 -36 1 -53 -18 -70 -76 -13 -43 -15 -141 -13 -614 2 -622 6 -585 -62 -580
l-35 3 0 140 c0 77 4 334 9 570 9 454 7 486 -35 539 -26 33 -70 35 -99 4 -42
-45 -70 -158 -144 -568 -8 -41 -50 -255 -94 -475 -44 -220 -97 -488 -116 -595
-20 -107 -40 -215 -46 -240 -5 -25 -28 -155 -50 -290 -23 -135 -45 -249 -50
-254 -6 -6 -22 1 -41 20 -53 49 -270 316 -334 409 -107 156 -126 172 -186 155
-47 -14 -166 -88 -194 -122 -50 -59 -29 -103 161 -339 218 -273 607 -693 663
-717 46 -19 293 -30 706 -31 197 -1 325 3 350 10 66 18 557 512 805 810 56 68
108 125 115 127 7 2 18 -11 25 -28 17 -41 38 -55 246 -158 212 -106 419 -191
663 -272 189 -63 241 -71 294 -44 138 71 598 444 644 521 25 44 25 45 19 196
-15 332 -58 685 -115 935 -15 67 -25 125 -21 127 3 2 65 9 136 15 279 23 549
68 838 141 194 49 217 58 249 100 73 98 291 694 291 800 1 55 -2 60 -98 205
-176 264 -343 477 -542 691 -57 61 -104 115 -103 120 0 4 60 52 132 106 73 53
188 145 255 203 165 142 486 465 507 511 14 30 17 53 12 122 -13 191 -114 686
-157 771 -18 35 -33 46 -125 90 -273 131 -619 259 -875 325 -80 20 -149 40
-153 44 -4 4 13 58 37 120 107 264 193 545 261 851 39 175 43 226 19 273 -50
96 -496 587 -568 624 -38 20 -124 13 -374 -28 -262 -43 -546 -111 -746 -178
-49 -17 -92 -29 -96 -26 -4 2 -13 39 -19 82 -26 162 -64 344 -106 508 -57 223
-169 565 -197 600 -40 51 -251 128 -573 210 -188 48 -261 61 -299 51 -31 -8
-211 -156 -386 -318 -167 -153 -417 -422 -492 -528 l-18 -25 -17 25 c-106 150
-445 492 -693 699 -190 159 -189 158 -320 131z"/>
<path d="M10555 11011 c-151 -24 -273 -83 -380 -183 -130 -121 -209 -268 -240
-443 -24 -141 -16 -246 30 -378 35 -101 81 -172 165 -257 131 -132 286 -194
485 -193 217 1 403 83 547 242 121 134 178 276 186 462 5 136 -15 237 -73 353
-41 83 -147 210 -225 268 -135 101 -338 154 -495 129z"/>
<path d="M1934 10910 c-151 -39 -271 -118 -374 -246 -139 -172 -191 -367 -156
-573 29 -164 87 -280 201 -396 343 -349 928 -276 1138 144 63 125 80 211 75
369 -4 104 -10 141 -32 207 -85 249 -280 434 -520 495 -102 26 -235 26 -332 0z"/>
<path d="M11972 8130 c-267 -48 -490 -236 -583 -490 -126 -345 22 -704 359
-874 214 -108 486 -99 691 21 79 46 194 160 240 236 61 103 104 233 117 357 8
70 -47 297 -92 379 -98 178 -260 309 -443 356 -79 20 -218 27 -289 15z"/>
<path d="M595 8016 c-157 -31 -252 -83 -370 -201 -119 -118 -162 -203 -200
-389 -30 -148 -29 -192 8 -314 64 -213 188 -365 371 -459 349 -177 807 -23
980 331 51 105 69 184 69 306 0 121 -18 200 -68 305 -146 300 -485 481 -790
421z"/>
<path d="M11680 4906 c-283 -60 -495 -253 -566 -516 -26 -96 -24 -253 5 -354
42 -151 116 -273 226 -373 134 -123 275 -182 450 -190 139 -6 228 12 344 69
70 34 103 60 177 133 100 100 135 158 184 304 87 259 20 529 -180 732 -61 61
-94 85 -170 122 -52 26 -122 54 -155 62 -86 22 -237 27 -315 11z"/>
<path d="M862 4790 c-125 -33 -226 -93 -322 -189 -47 -47 -100 -111 -117 -141
-78 -132 -114 -307 -95 -455 13 -100 70 -254 126 -337 79 -120 241 -238 384
-281 51 -15 97 -20 192 -21 115 0 132 2 213 31 233 82 398 248 480 480 27 76
32 105 35 214 3 106 1 139 -18 205 -33 122 -83 208 -175 299 -91 92 -175 144
-290 182 -111 36 -305 43 -413 13z"/>
<path d="M9808 2320 c-240 -43 -434 -208 -518 -439 -77 -209 -61 -425 46 -632
192 -371 656 -499 994 -274 178 118 290 285 326 484 18 100 17 162 -2 262 -30
160 -104 290 -230 408 -84 78 -210 148 -319 177 -72 18 -232 26 -297 14z"/>
<path d="M2825 2244 c-200 -42 -401 -196 -499 -383 -61 -118 -81 -199 -81
-341 0 -145 19 -222 88 -354 71 -138 237 -280 387 -332 467 -163 940 192 941
707 0 136 -21 229 -78 348 -85 178 -260 317 -448 356 -88 18 -219 18 -310 -1z"/>
<path d="M6301 1450 c-93 -13 -194 -46 -286 -93 -114 -58 -267 -210 -318 -317
-56 -114 -71 -186 -64 -310 9 -167 66 -307 182 -443 117 -137 254 -221 430
-262 131 -31 184 -31 309 0 344 85 616 413 616 740 0 150 -66 323 -165 432
-101 112 -260 202 -419 238 -84 19 -208 25 -285 15z"/>
</g>
</svg>
